<svg width="25" height="24" viewBox="0 0 25 24" fill="none" xmlns="http://www.w3.org/2000/svg">
<path d="M12.2051 2.25C6.82008 2.25 2.45508 6.615 2.45508 12C2.45508 17.385 6.82008 21.75 12.2051 21.75C17.5901 21.75 21.9551 17.385 21.9551 12C21.9451 6.62 17.5851 2.26 12.2051 2.25ZM16.8461 10.294L11.3521 15.544C11.2101 15.677 11.0221 15.751 10.8271 15.75C10.6341 15.753 10.4491 15.679 10.3111 15.544L7.56408 12.919C7.35708 12.738 7.26508 12.458 7.32608 12.189C7.38608 11.92 7.58908 11.706 7.85408 11.632C8.11908 11.557 8.40408 11.634 8.59608 11.831L10.8271 13.959L15.8141 9.206C16.1171 8.942 16.5751 8.964 16.8521 9.255C17.1281 9.547 17.1261 10.005 16.8461 10.294Z" fill="white"/>
</svg>
